<?xml version="1.0" encoding="utf-8"?>
<!-- Generator: Adobe Illustrator 17.0.0, SVG Export Plug-In . SVG Version: 6.00 Build 0)  -->
<!DOCTYPE svg PUBLIC "-//W3C//DTD SVG 1.1//EN" "http://www.w3.org/Graphics/SVG/1.1/DTD/svg11.dtd">
<svg version="1.1" id="Layer_1" xmlns="http://www.w3.org/2000/svg" xmlns:xlink="http://www.w3.org/1999/xlink" x="0px" y="0px"
	 width="1500px" height="411.071px" viewBox="0 0 1500 411.071" enable-background="new 0 0 1500 411.071" xml:space="preserve">
<rect x="-4.5" y="-4.964" fill="#FFFFFF" stroke="#000000" stroke-miterlimit="10" width="1510" height="420"/>
<g>
	<g id="Layer_6">
		<path fill="#0000FF" d="M1432.064,343.872l-1.76,6.046l-1.305-0.083l-1.035-0.021h-1.139l-1.16,0.062l-0.538,0.062l-0.497,0.083
			l-0.29,0.062l-0.539,0.145l-0.497,0.166l-0.477,0.228l-0.456,0.269l-0.435,0.311l-0.415,0.394l-0.476,0.456l-0.829,0.911
			l-0.766,0.891l-0.684,0.911l-0.684,0.932l-1.408,2.05l-0.249,0.394l-0.228,0.414l-0.207,0.394l-0.725,1.533l-0.373,0.746
			l-0.207,0.373l-0.249,0.373l-0.269,0.373l-0.311,0.352l-0.849,0.953l-0.828,0.849l-0.849,0.766l-0.435,0.373l-0.456,0.352
			l-0.456,0.331l-0.497,0.311l-0.518,0.311l-0.539,0.311l-0.58,0.29l-0.746,0.331l-0.746,0.311l-0.704,0.269l-0.725,0.228
			l-0.704,0.207l-0.684,0.186l-0.704,0.166l-1.45,0.311l-1.491,0.249l-1.615,0.249l-1.119,0.166l-1.222,0.145l-1.264,0.124
			l-2.589,0.186l-2.444,0.145l-2.05,0.104l-1.926,0.062l-1.408,0.269l-2.299-0.083l-2.402-0.104l-2.879-0.186l-3.044-0.228
			l-1.491-0.145l-1.429-0.166l-1.326-0.166l-0.663-0.124l-1.263-0.228l-1.181-0.269l-1.139-0.331l-1.139-0.394l-1.139-0.456
			l-1.201-0.58l-0.642-0.311l-1.18-0.621l-1.098-0.642l-0.518-0.331l-0.497-0.352l-0.497-0.373l-0.497-0.394l-0.476-0.414
			l-0.497-0.435l-0.477-0.476l-0.476-0.518l-0.58-0.642l-0.539-0.621l-0.497-0.621l-0.476-0.621l-0.435-0.601l-0.414-0.642
			l-0.415-0.621l-0.373-0.663l-0.373-0.663l-0.352-0.683l-0.352-0.725l-0.704-1.533l-0.228-0.559l-0.166-0.538l-0.145-0.539
			l-0.124-0.538l-0.083-0.518l-0.062-0.538l-0.207-2.133l-0.166-1.139l-0.104-0.601l-0.394-2.009l-0.145-0.538l-0.166-0.559
			l-0.228-0.58l-0.27-0.559l-0.207-0.331l-0.207-0.311l-0.249-0.311l-0.559-0.601l-1.553-1.512l-0.58-0.559l-0.642-0.518
			l-0.684-0.476l-0.373-0.228l-0.394-0.228l-0.394-0.166l-0.414-0.166l-0.456-0.145l-0.932-0.228l-0.891-0.186l-0.766-0.124
			l-0.725-0.083l-16.113-0.331l-16.962,0.207l-22.119,0.166l-24.833,0.207l-21.83,0.166l-18.992,0.124l-20.649,0.104l-10.687,0.104
			v-6.213h0.311l10.231-0.228l10.231-0.166l10.231-0.083l15.658,0.29l0.559-3.231l0.012-0.012c0.176-0.307,0.518-0.48,0.868-0.437
			c0.35,0.041,0.644,0.288,0.742,0.628l-0.028,0.007l0.704,2.713l2.009,0.062l24.708-0.435l20.586-0.104l22.492,0.083l17.086-0.352
			l21.084,0.269l9.837,0.145l1.74-0.062l12.696,0.145l13.11-0.104l2.34,0.104l2.485,0.145l2.962,0.207l1.574,0.124l1.574,0.145
			l1.533,0.186l1.47,0.186l1.346,0.228l1.098,0.207l1.057,0.228l1.015,0.249l0.973,0.249l1.885,0.538l1.864,0.601l4.971,1.678
			l1.512,0.518l1.408,0.518l4.06,1.574l1.45,0.538l0.766,0.269l2.651,0.911l5.799,1.885l5.861,1.885L1432.064,343.872z
			 M1410.649,352.03v-0.559l-0.042-0.601l-0.042-0.601l-0.083-0.621l-0.063-0.373l-0.083-0.352l-0.125-0.311l-0.124-0.311
			l-0.166-0.311l-0.166-0.29l-0.207-0.269l-0.435-0.538l-0.994-1.077l-1.305-1.429l-0.829-0.87l-0.849-0.828l-0.435-0.373
			l-0.456-0.373l-0.497-0.373l-0.497-0.352l-0.538-0.331l-0.58-0.331l-0.642-0.331l-0.642-0.29l-0.621-0.249l-0.601-0.228
			l-0.622-0.207l-0.601-0.186l-0.621-0.166l-1.243-0.269l-1.326-0.249l-1.408-0.228l-1.098-0.186l-2.092-0.311l-1.988-0.228
			l-1.947-0.186l-1.968-0.145l-2.05-0.104l-2.195-0.083l-1.118-0.021h-2.092l-2.009,0.041l-1.947,0.083l-1.967,0.124l-4.225,0.29
			l-1.512,0.124l-0.559,0.104l-0.559,0.104l-0.58,0.145l-0.601,0.186l-0.249,0.104l-0.518,0.249l-0.518,0.29l-0.89,0.58
			l-0.373,0.249l-1.139,0.787l-0.497,0.352l-0.518,0.414l-0.601,0.497l-0.56,0.559l-0.269,0.311l-0.228,0.29l-0.187,0.311
			l-0.477,0.891l-0.414,0.87l-0.352,0.849l-0.145,0.435l-0.145,0.435l-0.104,0.456l-0.083,0.456l-0.062,0.476l-0.021,0.497
			l-0.021,0.497l0.021,0.704l0.021,0.663l0.062,0.642l0.063,0.642l0.083,0.601l0.125,0.601l0.124,0.601l0.166,0.58l0.187,0.601
			l0.228,0.58l0.249,0.601l0.269,0.601l0.311,0.621l0.27,0.497l0.29,0.456l0.29,0.435l0.311,0.414l0.311,0.394l0.332,0.373
			l0.352,0.352l0.373,0.331l0.415,0.311l0.414,0.29l0.435,0.29l0.456,0.29l0.497,0.269l0.766,0.414l0.767,0.352l0.745,0.352
			l0.725,0.29l0.725,0.29l0.725,0.249l0.725,0.228l0.746,0.207l0.766,0.186l0.766,0.166l0.808,0.145l1.698,0.269l0.331,0.041h0.311
			l0.311-0.021l0.29-0.062l0.29-0.062l0.29-0.104l0.27-0.104l0.559-0.269l0.539-0.311l0.559-0.331l0.187-0.124l0.145-0.166
			l0.166-0.166l0.29-0.393l0.228-0.394l0.187-0.352l0.145-0.331l-0.104-2.237l-0.021-1.077l7.021,0.021l-0.104,1.284l-0.042,0.787
			v0.849l0.021,0.787l0.062,0.373l0.104,0.518l0.104,0.311l0.125,0.29l0.166,0.269l0.228,0.269l0.249,0.249l0.124,0.104l0.27,0.166
			l0.29,0.104l0.29,0.083l0.29,0.041l0.663,0.062l0.559,0.041l1.222,0.062l1.284,0.021l2.216-0.021h0.953l7.27-0.559l0.973-0.249
			l1.015-0.29l1.16-0.414l0.601-0.228l0.601-0.249l0.58-0.29l0.518-0.29l0.477-0.331l0.414-0.331l0.394-0.331l0.373-0.331
			l0.352-0.331l0.332-0.352l0.29-0.373l0.29-0.373l0.269-0.394l0.249-0.393l0.249-0.435l0.207-0.456l0.228-0.456l0.187-0.497
			l0.207-0.601l0.186-0.559l0.166-0.58l0.145-0.538l0.104-0.559l0.083-0.538l0.063-0.559l0.041-0.559L1410.649,352.03z"/>
		<path opacity="0.4" fill="#FF0000" enable-background="new    " d="M1355.538,363.459c-4.22-4.132-6.962-9.777-7.347-16.085
			l0.036-0.014c-0.188-3.083-1.643-5.951-4.018-7.925c-2.377-1.974-5.463-2.88-8.528-2.501l-0.005,0.019l-2.216,0.269l-15.078,1.864
			l-118.528,0.207h-3.044h-0.004c-2.38,0.003-4.751-0.266-7.069-0.804l0.001-0.005l-1.731-0.35l-1.761-0.269l-1.636-0.186v-7.062
			l167.53-0.269l14.229,0.186l13.11-0.104l2.34,0.104l2.485,0.145l2.961,0.207l1.574,0.124l1.574,0.145l1.532,0.186l1.471,0.186
			l1.346,0.228l1.098,0.207l1.056,0.228l1.015,0.249l0.973,0.249l1.885,0.538l1.864,0.601l4.971,1.677l1.512,0.518l1.408,0.518
			l4.059,1.574l1.45,0.538l0.766,0.269l2.651,0.911l5.799,1.885l5.861,1.885l0.932,0.269l-0.88,3.024l-0.88,3.024l-1.305-0.083
			l-1.035-0.021h-1.139l-1.16,0.062l-0.539,0.062l-0.497,0.083l-0.29,0.062l-0.539,0.145l-0.497,0.166l-0.476,0.228l-0.456,0.269
			l-0.435,0.311l-0.415,0.394l-0.476,0.456l-0.829,0.911l-0.766,0.891l-0.684,0.911l-0.684,0.932l-1.408,2.05l-0.249,0.394
			l-0.228,0.414l-0.207,0.394l-0.725,1.533l-0.373,0.746l-0.207,0.373l-0.249,0.373l-0.269,0.373l-0.311,0.352l-0.849,0.953
			l-0.828,0.849l-0.849,0.766l-0.435,0.373l-0.456,0.352l-0.456,0.331l-0.497,0.311l-0.518,0.311l-0.539,0.311l-0.58,0.29
			l-0.746,0.331l-0.746,0.311l-0.704,0.269l-0.725,0.228l-0.704,0.207l-0.684,0.186l-0.704,0.166l-1.45,0.311l-1.491,0.249
			l-1.615,0.249l-1.119,0.166l-1.222,0.145l-1.264,0.124l-2.589,0.186l-2.444,0.145l-2.05,0.104l-1.926,0.062l-1.408,0.269
			l-12.116-0.746l-0.007-0.009c-5.39-0.145-10.357-2.012-14.356-5.083c-0.072-0.057-0.146-0.114-0.221-0.171
			c-0.045-0.038-0.091-0.074-0.138-0.109c-0.185-0.148-0.368-0.299-0.547-0.452c-0.088-0.073-0.174-0.148-0.261-0.223
			c-0.102-0.088-0.202-0.178-0.302-0.267c-0.133-0.119-0.262-0.24-0.394-0.362C1355.792,363.707,1355.666,363.583,1355.538,363.459z
			 M1372.292,364.905v-0.016c1.917-0.242,3.569-1.47,4.353-3.238l-0.126-3.284l7.021,0.021l-0.104,1.284l-0.041,0.787v0.849
			l0.021,0.787l0.062,0.373l0.104,0.518l0.104,0.311l0.125,0.29l0.166,0.269l0.228,0.269l0.249,0.249l0.124,0.104l0.27,0.166
			l0.29,0.104l0.29,0.083l0.29,0.041l0.663,0.062l0.56,0.041l1.222,0.062l1.284,0.021l2.216-0.021h0.953l7.27-0.559l0.973-0.249
			l1.015-0.29l1.16-0.414l0.601-0.228l0.601-0.249l0.58-0.29l0.518-0.29l0.477-0.331l0.414-0.331l0.394-0.331l0.373-0.331
			l0.352-0.331l0.332-0.352l0.29-0.373l0.29-0.373l0.269-0.394l0.249-0.393l0.249-0.435l0.207-0.456l0.228-0.456l0.186-0.497
			l0.208-0.601l0.186-0.559l0.166-0.58l0.145-0.538l0.104-0.559l0.083-0.539l0.063-0.559l0.041-0.559l0.021-0.559v-0.559
			l-0.042-0.601l-0.042-0.601l-0.083-0.621l-0.062-0.373l-0.083-0.352l-0.125-0.311l-0.124-0.311l-0.166-0.311l-0.166-0.29
			l-0.207-0.269l-0.435-0.539l-0.994-1.077l-1.305-1.429l-0.829-0.87l-0.849-0.828l-0.435-0.373l-0.456-0.373l-0.497-0.373
			l-0.497-0.352l-0.539-0.331l-0.58-0.331l-0.642-0.331l-0.642-0.29l-0.621-0.249l-0.601-0.228l-0.622-0.207l-0.601-0.186
			l-0.621-0.166l-1.243-0.269l-1.326-0.249l-1.408-0.228l-1.098-0.186l-2.092-0.311l-1.988-0.228l-1.947-0.186l-1.968-0.145
			l-2.05-0.104l-2.195-0.083l-1.119-0.021h-2.092l-2.009,0.041l-1.947,0.083l-1.968,0.124l-4.225,0.29l-1.512,0.124l-0.559,0.104
			l-0.559,0.104l-0.58,0.145l-0.601,0.186l-0.249,0.104l-0.518,0.249l-0.518,0.29l-0.891,0.58l-1.512,1.036l-0.007-0.009
			c-3.997,2.95-5.744,8.072-4.384,12.853v0.012C1358.117,360.124,1364.795,364.705,1372.292,364.905z"/>
	</g>
	<g id="Layer_5">
		<path fill="#0000FF" d="M641.799,363.742l0.021,7.323l-17.811,0.381l-0.125-0.145h-1.036l-0.062,0.145l-18.329-1.305l-1.719-0.476
			l-1.677-0.538l-1.657-0.621l-1.636-0.704l-1.595-0.745l-0.601-0.331v-13.027l15.036-0.124l0.012-0.012
			c3.637-1.969,7.762-2.858,11.888-2.563l0.692,0.048l-0.124,2.568l-0.497,0.083v1.243h1.305l0.083-0.104l17.729-0.207l0.083,4.391
			h-17.791l-0.124-0.124h-1.243l0.021,1.243l0.601,0.145l-0.042,2.423l-0.456,0.124v1.015h1.057l0.145-0.062L641.799,363.742z"/>
		<path fill="#0000FF" d="M802.667,340.293c2.534,0.073,5.003-0.803,6.928-2.453l0.481-0.464l-6.627,9.776l-7.861,11.503
			l-0.009-0.005c1.4-2.375,0.652-5.433-1.686-6.893c-2.337-1.462-5.413-0.794-6.935,1.505l0.022,0.022
			c-2.187,3.398-5.771,5.646-9.781,6.134c-4.009,0.487-8.029-0.837-10.964-3.612l-0.003,0.003l-1.61-1.817l0.017-0.016
			c-0.998-1.612-2.767-2.582-4.66-2.558h-0.022l-9.672-0.269v-0.019c-1.96-0.047-3.754,1.096-4.542,2.891
			c-0.759,1.731-0.438,3.738,0.803,5.145l-18.524-19.893c1.245,0.547,2.606,0.825,3.997,0.792v0.004l16.921-0.021l11.805-0.021
			l0.01-0.024c1.626-0.06,3.146-0.818,4.172-2.08l0.008,0.007c2.487-3.193,6.279-5.098,10.326-5.19
			c4.044-0.091,7.918,1.641,10.547,4.719l-0.009,0.007c1.085,1.56,2.85,2.509,4.748,2.559v0.002l12.116,0.269L802.667,340.293z"/>
		<path fill="#0000FF" d="M983.239,335.321c-9.936,0.183-19.772,1.997-29.122,5.366v0.003c-0.937,0.171-1.855,0.43-2.744,0.771
			c-0.889,0.343-1.745,0.768-2.554,1.27c-1.077,0.666-2.066,1.465-2.944,2.375c-0.88,0.911-1.643,1.928-2.271,3.027l-0.005,0.012
			l-5.778,9.983l-3.145-1.593c0.744-1.462,1.284-3.05,1.581-4.729h0.005c-0.458-1.365-1.457-2.482-2.762-3.088
			c-1.305-0.608-2.803-0.652-4.142-0.124l-0.009,0.007l-24.335,4.639v0.002c-2.465,0.045-4.869,0.777-6.938,2.116
			c-0.317,0.965-0.847,1.869-1.588,2.642l-0.017,0.009l-0.217-0.192l-1.015,1.139l-1.367,0.766l-0.083,0.041l-4.246,0.083
			l-0.352-0.186l-3.044,0.559l0.021,0.124l-5.965,0.891l-13.586,0.352l-0.063,0.021l-1.098-0.041l0.016,0.751l-0.078-0.005
			l-5.758-0.062l-0.104,1.45l-2.195,0.145l-0.518-1.885l-6.296-0.124l0.042,1.553h-2.589l-0.021-1.491l-6.068-0.29l-0.021-0.021
			l6.979-9.941l7.601-11.391v1.036l1.036,0.062l0.042-0.002l0.062,2.818h2.071l0.083,0.725l3.21,0.083l0.104-0.828l2.32-0.062
			v-0.166l0.559-0.009v-0.074l0.021-2.589h-0.435l0.042-1.077l1.119-0.041l8.616-0.041l0.042,2.817l8.926-0.145l0.012,0.002
			c-0.202,1.146,0.176,2.321,1.011,3.136c0.837,0.816,2.022,1.167,3.168,0.934l0.016,0.009c2.487-1.168,5.368-0.753,7.41,0.928
			c1.736-1.426,2.727-3.569,2.692-5.816l16.053-0.373l13.06-0.58v-0.012c2.361-0.295,4.712-0.665,7.049-1.106
			c2.333-0.442,4.653-0.956,6.954-1.543c1.834-0.466,3.659-0.979,5.468-1.538c1.805-0.556,3.597-1.158,5.373-1.803l0.014-0.017
			c9.869-3.36,20.174-5.269,30.592-5.666l0.128,0.026l10.231-0.311l10.231-0.207l10.231-0.166l10.231-0.083v6.482l-20.317,0.083
			l-20.628,0.207v-0.027L983.239,335.321L983.239,335.321z M863.241,354.049l0.166-4.639l-3.956-0.062l-0.021,1.885l-2.527,0.021
			l-0.083-0.994l-6.358-0.062l0.125,3.397l6.399,0.166l-0.062-1.098l2.527-0.041l-0.021,1.201L863.241,354.049z"/>
		<polygon fill="#0000FF" points="892.898,342.099 893.001,344.563 888.984,344.625 888.88,342.161 		"/>
		<path opacity="0.4" fill="#FF0000" enable-background="new    " d="M998.311,336.205c-2.877-0.668-5.823-0.989-8.776-0.96
			l-0.019,0.019l-1.698,0.021v-0.017c-4.643,0.045-9.267,0.611-13.783,1.686l-0.01,0.029l-21.56,5.136l-0.002-0.004
			c-3.937,1.263-7.321,3.842-9.584,7.304l-0.024,0.01l-5.033,8.699l-3.148-1.595l0.953-2.216l0.019-0.007
			c0.637-1.483,0.404-3.195-0.608-4.453c-1.009-1.258-2.632-1.855-4.216-1.552v0.005l-30.321,5.799l-1.719,0.849l-0.003-0.009
			c-0.449,0.223-0.841,0.551-1.138,0.956l0.002,0.005l-1.388,1.905l-1.015,1.139l-1.409,0.787l-4.287,0.104l-0.352-0.186
			l-8.988,1.574l-4.495,0.124l-8.719,0.228l-24.957-0.228l-0.003-0.003l6.817-9.71l7.601-11.391v1.036l1.035,0.062l0.042-0.002
			l0.063,2.818h2.071l0.083,0.725l3.21,0.083l0.104-0.828l2.32-0.062v-0.166l0.559-0.009v-0.074l0.021-2.589h-0.435l0.042-1.077
			l1.118-0.041l8.616-0.042l0.042,2.817l8.926-0.145l14.291-0.808l16.072-0.373l13.06-0.58v-0.012
			c1.643-0.205,3.281-0.447,4.914-0.723l2.157-0.611l14.27-4.287l0.014-0.019c1.132-0.338,2.273-0.646,3.422-0.918l0.002,0.005
			l19.841-4.722l0.003-0.014c2.327-0.552,4.681-0.987,7.05-1.298v0.022c0.846-0.036,1.69-0.055,2.536-0.057c0.007,0,0.012,0,0.019,0
			l42.272-0.062v8.699l-15.761,0.021l-3.045,0.021l-0.003-0.021c-2.38,0.004-4.751-0.266-7.069-0.802L998.311,336.205z
			 M863.241,354.049l0.166-4.639l-3.956-0.062l-0.021,1.885l-2.527,0.021l-0.083-0.994l-6.358-0.062l0.125,3.397l6.399,0.166
			l-0.062-1.098l2.527-0.041l-0.021,1.201L863.241,354.049z"/>
		<path opacity="0.4" fill="#FF0000" enable-background="new    " d="M612.329,371.03c-4.189-0.166-8.3-1.174-12.088-2.967
			l-0.007,0.007l-4.66-2.216v-12.219l15.036-0.062l0.005-0.016c3.669-1.978,7.827-2.874,11.986-2.582v0.009h0.539l0.083,2.713
			h-0.642v1.243h1.305v-0.104h0.083l17.729-0.207l0.083,4.391H623.99h-0.124v-0.124h-1.243l0.021,1.243h0.622l0.021,2.672
			l-0.539,0.021v0.808v0.207l19.054-0.104l0.021,7.332l-15.202,0.331l-2.734,0.062v-0.166h-1.036v0.145l-10.521-0.414
			L612.329,371.03L612.329,371.03z"/>
		<path opacity="0.4" fill="#FF0000" enable-background="new    " d="M802.667,340.293c1.255,0.036,2.508-0.161,3.691-0.58
			l0.014,0.002c1.198-0.383,2.299-1.018,3.226-1.864l0.002,0.002l-14.013,20.802l-0.009-0.005c1.4-2.375,0.652-5.433-1.686-6.893
			c-2.337-1.462-5.413-0.794-6.935,1.505l0.022,0.022c-2.187,3.398-5.771,5.646-9.781,6.134c-4.011,0.487-8.029-0.837-10.964-3.612
			l-0.003,0.003l-1.61-1.817l0.017-0.016c-0.927-1.496-2.523-2.447-4.278-2.549l-0.011,0.012l-10.065-0.29v-0.019
			c-1.96-0.047-3.754,1.096-4.542,2.891c-0.759,1.729-0.44,3.731,0.797,5.138l-18.409-19.838c1.228,0.521,2.553,0.775,3.887,0.744
			v0.003l28.726-0.041l0.011-0.024c0.804-0.029,1.591-0.231,2.311-0.59c0.72-0.357,1.354-0.866,1.861-1.489l0.008,0.007
			c2.487-3.193,6.279-5.098,10.326-5.19c4.046-0.091,7.918,1.643,10.547,4.719l-0.009,0.007c0.537,0.77,1.246,1.403,2.071,1.848
			c0.825,0.444,1.741,0.685,2.677,0.711v0.002l12.116,0.269L802.667,340.293z"/>
	</g>
	<g id="Layer_4">
		<path fill="#0000FF" d="M329.536,360.037l-0.002,0.002l-16.196,0.083l-21.415,1.636l-18.93,0.973l-16.444,0.414l-1.336,0.041
			v0.007c-1.465,2.358-4.021,3.966-6.969,4.123c-3.158,0.167-6.048-1.367-7.72-3.844l-0.005,0.003l-8.409-0.601l-50.824-6.275
			l-10.397-0.994l-15.409,1.843l-4.287,0.104l-21.208,2.382l-5.758-0.435l-5.737-0.518l-5.737-0.601l-5.716-0.663l-5.737-0.746
			l-5.696-0.828l-5.695-0.891l-15.802-2.879l-10.376-1.201l-20.4-3.977l-6.42-0.456v-7.104l2.05,0.207l5.26,0.601l1.76,0.249
			l1.698,0.249l1.615,0.29l1.574,0.311l3.065,0.642l6.13,1.388l1.615,0.352l1.678,0.331l1.76,0.331l8.139,1.491l3.769,0.663
			l3.749,0.642l3.852,0.601l4.08,0.601l2.154,0.29l9.755,1.284l0.019-0.024c12.035,2.789,24.43,3.673,36.74,2.616l0.003,0.038
			l4.929-0.683l1.18-0.186l1.263-0.269l1.263-0.29l2.527-0.683l0.456-0.497l0.435-0.559l0.476-0.663l0.207-0.352l0.207-0.373
			l0.166-0.393l0.125-0.352l0.062-0.373l0.124-1.098l0.104-1.077l0.021-0.538v-0.518l-0.042-0.518l-0.062-0.476l-0.124-0.476
			l-0.187-0.456l-0.228-0.435l-0.311-0.393l-0.394-0.373l-0.891-0.683l-0.89-0.621l-0.891-0.559l-0.891-0.497l-0.932-0.435
			l-0.911-0.373l-0.953-0.352l-0.953-0.29l-0.994-0.29l-1.015-0.228l-1.056-0.249L137,335.766l-1.615-0.29l-1.532-0.207
			l-1.512-0.145l-1.47-0.124l-1.429-0.062l-1.429-0.062l-2.858-0.021h-2.92l-3.107-0.042l-1.615-0.062l-2.589-0.104l-4.846-0.124
			l-9.071-0.207l-4.536-0.124l-2.299-0.104l-2.403-0.124l-2.464-0.145l-2.548-0.186l-1.015-0.083l-1.885-0.228l-1.76-0.269
			l-1.74-0.331l-1.719-0.373l-1.781-0.456l-1.906-0.497l-0.311-0.104l-0.601-0.207l-0.518-0.249l-0.518-0.269l-0.476-0.331
			l-0.497-0.352l-0.518-0.394l-0.497-0.373l-0.29-0.269l-0.269-0.29l-0.207-0.311l-0.187-0.352l-0.124-0.394l-0.021-0.207v-0.207
			l0.042-0.249l0.104-0.456l0.166-0.456l0.166-0.373l0.166-0.331l4.971-0.269l-0.994,1.056l-0.373,0.435l-0.332,0.456l-0.145,0.207
			l-0.124,0.207l-0.021,0.124v0.104l0.021,0.104l0.083,0.145l0.145,0.145l0.166,0.124l0.187,0.083l0.373,0.124l0.331,0.062
			l2.113,0.435l3.873,0.849l1.905,0.352l0.953,0.166l0.994,0.124l1.015,0.104l1.056,0.083l1.098,0.042l2.34,0.041h2.258l2.196-0.041
			l2.113-0.083l2.092-0.104l8.222-0.497l2.113-0.124l2.195-0.104l2.258-0.083l2.34-0.041l1.74-0.042l1.678-0.062l6.255-0.352
			l1.512-0.041l1.512-0.021l1.533,0.062l1.553,0.104l1.574,0.186l1.636,0.269l1.677,0.373l1.615,0.414l1.512,0.476l1.45,0.497
			l1.408,0.539l1.346,0.601l1.305,0.621l1.284,0.683l1.263,0.725l1.263,0.787l1.263,0.808l1.263,0.891l1.305,0.932l1.326,0.994
			l0.497,0.414l0.414,0.435l0.352,0.476l0.29,0.497l0.269,0.518l0.207,0.539l0.394,1.118l0.373,1.16l0.228,0.601l0.228,0.58
			l0.29,0.601l2.071,3.873l11.805-0.124l10.335,0.766l19.758,2.361l19.095,2.444l3.832,0.435l3.811,0.352l3.832,0.269l3.832,0.207
			l3.832,0.145l0.01,0.005c1.211-2.53,3.574-4.411,6.451-4.948l-0.394-6.614l2.589-0.083l0.269,6.581
			c3.074,0.281,5.858,2.14,7.257,5.017l16.56,0.145l25.019-1.885l6.731-0.663l8.408-0.311l19.344-0.393l15.948-0.352l0.019-0.017
			c6.974-1.517,14.092-2.261,21.23-2.218v0.019l23.714,0.083l12.675,2.672l11.412-0.352l15.326-0.269l16.983-0.145l1.222-0.601
			l1.264-0.538l1.284-0.456l1.325-0.373l1.346-0.29l1.346-0.207l1.367-0.124l1.367-0.021l1.367,0.041l0.705,0.062l-0.125,2.547
			l-0.007,0.095l-0.49,0.009v1.243l1.305-0.021v-0.085l0.083,0.002l2.609-0.041v4.225l-2.589-0.021l-0.122-0.016l-0.002-0.109
			l-1.243,0.021l0.021,1.243l0.609-0.01l-0.008,0.135l-0.042,2.444l-0.009,0.104h-0.447v1.036l1.056-0.021v-0.041h0.145h2.63v7.601
			l-2.568,0.062h-0.124v-0.145h-1.036v0.124h-0.063l-18.329-1.284l-1.719-0.476l-1.678-0.559l-1.657-0.621l-1.636-0.683
			l-1.595-0.766l-1.574-0.828l-1.532-0.891l-1.491-0.953l0.002-0.004c-2.675-1.395-5.504-2.473-8.428-3.215l-0.003,0.009
			l-4.846-0.249l-34.276,0.373l-7.208-0.083l-7.767-0.249l-20.007-0.29l-8.954,0.062c-2.033,0.355-3.695,1.821-4.304,3.794
			l-0.017-0.004l-1.276-0.164l0.002-0.016C332.632,361.971,331.239,360.698,329.536,360.037z"/>
		<path opacity="0.4" fill="#FF0000" enable-background="new    " d="M75.622,325.365c0.048,1.715,1.474,3.067,3.188,3.026v0.002
			l16.527-0.476l0.015,0.005c1.688-0.048,3.374-0.028,5.059,0.06v-0.003l33.821,1.802l0.005-0.009
			c2.913,0.154,5.797,0.651,8.595,1.477c1.636,0.485,3.234,1.079,4.788,1.783l-0.009,0.021l3.811,1.719l0.026-0.01
			c1.151,0.521,2.218,1.217,3.162,2.061l-0.019,0.021l10.521,9.423l0.014,0.014c2.005,1.797,4.531,2.889,7.2,3.126l1.194,0.048
			l0.062,0.002l13.317,0.538l0.017-0.012c1.733,0.071,3.462,0.212,5.183,0.428l-0.002,0.019l12.737,1.595l26.966,3.376l1.263,0.083
			l0.003,0.012c0.514,0.035,1.032,0.057,1.55,0.066v-0.016l11.95,0.207l-0.373-10.749l2.485-0.083l0.373,10.873v0.002l25.04,0.433
			l14.87-1.74l6.048-0.186l20.939-1.118l40.821-2.154v-0.017c1.089-0.057,2.18-0.086,3.271-0.086l0.002,0.021l27.794-0.021h0.019
			c3.535,0,7.062,0.299,10.545,0.899l-0.002,0.012l0.29,0.042l2.858,0.456l0.002-0.003c1.74,0.269,3.499,0.416,5.259,0.437v0.002
			l15.14,0.166l27.608-0.104l0.005,0.005c3.669-1.978,7.827-2.874,11.986-2.582v0.009l0.539-0.021l0.083,2.713l-0.642,0.021v1.243
			l1.305-0.021v-0.083h0.083l2.61-0.041v4.225l-2.589-0.021l-0.125,0.021v-0.145l-1.243,0.021l0.021,1.243h0.621l0.021,2.672h-0.539
			v0.808v0.228l3.832-0.021v7.56l-2.692,0.062v-0.145h-1.036v0.124l-10.521-0.394v-0.002c-4.189-0.166-8.3-1.174-12.088-2.967
			l-0.007-0.014l-12.137-5.737l0.01-0.026c-1.619-0.766-3.385-1.174-5.176-1.196l-0.012,0.021l-18.308-0.207l-13.71-0.518v-0.003
			c-0.663-0.026-1.326-0.038-1.988-0.038h-0.021l-27.794,0.021v-0.021c-0.939,0-1.878,0.024-2.817,0.074v0.009l-40.821,2.175
			l-23.673,1.243l-17.853,0.58l-25.971-0.452h-0.002l-1.22,2.295h-2.444l-1.284-2.382l-9.465-0.166v0.016
			c-0.644-0.012-1.287-0.04-1.929-0.083l-0.017,0.005l-1.45-0.104l-0.642-0.081v-0.002l-24.294-3.045l0.002-0.019
			c-1.721-0.216-3.45-0.357-5.183-0.428l-0.017,0.012l-43.617-1.76v-0.005c-1.234-0.05-2.471,0.024-3.692,0.221l-0.016,0.012
			l-24.232,3.894v0.005c-3.371,0.538-6.805,0.516-10.171-0.062l-4.638-0.792l-2.692,1.036l-0.005-0.014
			c-0.492,0.192-0.927,0.506-1.263,0.911l0.005,0.014l-1.196,1.443c-0.002,0.002-0.003,0.005-0.005,0.007
			c-0.701,0.835-1.784,1.248-2.862,1.082l-0.002,0.014l-14.679-2.235c-1.45-0.231-2.554-1.42-2.68-2.886l-0.012,0.002l-0.021-0.138
			h0.005c-0.112-0.438-0.317-0.846-0.604-1.196l-0.022,0.014l-3.314-4.059l0.003-0.012l-2.634-0.651l0.004-0.014
			c-1.438-0.355-2.889-0.658-4.348-0.91l-0.005,0.012l-27.69-4.763l-3.293-0.518l-3.314-0.435l-3.314-0.331l-3.314-0.269
			l-0.435-0.021v-8.802l2.465,0.124l2.734,0.228l2.713,0.311l2.713,0.394l2.713,0.476l2.692,0.538l2.672,0.621l9.268,2.316v-0.002
			c2.245,0.561,4.511,1.039,6.792,1.431l0.012,0.003l11.764,2.03l16.072,2.817l18.702,3.21l2.464,0.435l0.024,0.007
			c2.425,0.418,4.902,0.432,7.33,0.043l-0.002-0.009l17.687-2.843l1.11-0.178v-0.003c2.656-0.426,4.492-2.884,4.153-5.551
			l-0.024,0.003l-0.081-0.687l0.012-0.012c-0.316-2.475-2.082-4.522-4.482-5.2l-0.003,0.014l-6.151-1.367l0.005-0.026
			c-3.386-0.759-6.831-1.234-10.297-1.419l-0.022,0.016l-46.827-2.506v-0.004c-0.335-0.017-0.671-0.022-1.008-0.012l-0.007,0.016
			l-3.148,0.083v-0.003c-4.458,0.121-8.174-3.393-8.302-7.853H70.65l-0.021-0.428l4.971-0.145l0.019,0.432h0.002v-0.005H75.622z"/>
	</g>
	<g id="Layer_3">
		<polygon fill="#0000FF" points="1089.203,150.433 1079.965,153.622 1052.585,165.345 1041.816,168.907 1041.816,162.217 
			1048.609,160.126 1054.119,157.62 1077.293,147.264 1081.768,145.131 1086.252,143.685 1086.251,143.681 1086.221,142.956 
			1086.221,142.583 1089.845,139.787 1089.638,139.063 1088.603,138.172 1090.279,137.799 1092.062,137.426 1094.193,137.054 
			1095.313,136.867 1096.452,136.722 1097.549,136.619 1098.625,136.557 1099.621,136.536 1099.869,136.557 1100.097,136.619 
			1100.304,136.681 1100.51,136.784 1100.697,136.909 1100.883,137.054 1101.049,137.219 1101.359,137.571 1101.629,137.986 
			1101.877,138.42 1107.718,136.515 1113.58,134.693 1119.481,132.932 1125.384,131.275 1131.329,129.68 1137.293,128.169 
			1143.258,126.74 1149.265,125.393 1169.603,124.503 1193.295,125 1199.384,125 1211.024,124.669 1212.992,123.716 
			1214.192,121.769 1222.063,121.251 1222.292,121.562 1222.623,121.997 1223.016,122.494 1223.451,122.991 1223.7,123.219 
			1223.928,123.426 1224.175,123.592 1224.506,123.778 1224.838,123.923 1225.19,124.006 1225.542,124.068 1225.895,124.089 
			1226.475,124.068 1231.196,123.902 1235.587,123.716 1239.813,123.509 1243.997,123.26 1248.284,122.991 1255.222,122.515 
			1263.816,121.893 1267.792,121.583 1271.749,121.231 1275.788,120.816 1280.054,120.34 1282.312,120.05 1284.278,119.801 
			1286.143,119.532 1289.706,118.952 1293.123,118.352 1299.958,117.068 1303.623,116.405 1305.569,116.073 1318.059,113.982 
			1326.074,112.698 1342,110.15 1347.013,109.384 1352.148,108.618 1357.596,107.893 1360.475,107.541 1364.037,107.126 
			1367.371,106.795 1370.582,106.505 1373.75,106.298 1377.021,106.112 1382.304,105.863 1392.473,105.428 1397.194,105.262 
			1401.875,105.159 1404.256,105.117 1406.681,105.117 1409.187,105.117 1411.754,105.159 1414.446,105.221 1419.749,105.387 
			1424.699,105.594 1427.081,105.718 1429.441,105.863 1431.803,106.029 1434.143,106.215 1436.545,106.443 1438.968,106.671 
			1441.475,106.919 1446.734,107.541 1448.496,107.768 1450.193,108.038 1451.81,108.307 1453.383,108.618 1456.449,109.26 
			1462.579,110.647 1464.194,110.999 1465.873,111.331 1467.632,111.662 1470.429,112.18 1470.429,118.745 1466.225,118.269 
			1445.845,114.272 1414.695,112.035 1382.655,112.449 1360.62,114.065 1327.543,119.325 1306.397,122.68 1283.741,127.092 
			1255.718,132.062 1228.876,133.636 1199.591,133.574 1192.839,133.243 1171.507,131.565 1150.672,132.29 1122.692,138.897 
			1103.846,144.841 1103.68,145.504 1103.494,146.146 1103.266,146.767 1103.018,147.368 1102.728,147.927 1102.417,148.486 
			1102.063,148.983 1101.649,149.459 1101.214,149.915 1100.738,150.309 1100.201,150.64 1099.642,150.951 1099.02,151.199 
			1098.17,151.448 1097.321,151.675 1096.494,151.821 1095.665,151.924 1094.835,151.945 1094.007,151.924 1093.2,151.841 
			1092.414,151.717 1091.625,151.51 1090.838,151.241 1090.072,150.909 1089.307,150.495 		"/>
		<path opacity="0.4" fill="#FF0000" enable-background="new    " d="M1081.866,152.927c-1.263,0.447-2.515,0.934-3.745,1.462
			l-0.019,0.021l-31.066,13.296l-2.589,1.077l-2.63,0.994V160.5l2.216-0.953l-0.003-0.01l30.656-13.12l0.014-0.022
			c1.41-0.604,2.839-1.163,4.287-1.672l0.007,0.017l27.297-9.631l3.728-1.284l3.749-1.181l3.791-1.118l3.811-1.036l3.832-0.953
			l3.832-0.87l3.873-0.787l3.873-0.704l3.894-0.642l3.914-0.539l3.915-0.456l3.915-0.373l3.935-0.311l3.935-0.207l3.956-0.124
			l3.935-0.041l3.935,0.041l38.301,0.766l0.022-0.069c0.942-0.33,1.813-0.84,2.563-1.501l-0.003-0.004l1.181-1.947l7.891-0.518
			l1.635,1.966l0.003-0.003c0.63,0.654,1.418,1.134,2.29,1.389l0.105,0.01l22.725-1.684l18.847-1.408l0.012-0.002
			c1.976-0.147,3.942-0.404,5.891-0.768v0.003l47.138-8.864l6.234-1.098l32.04-5.364l0.001-0.022
			c4.077-0.683,8.208-1.008,12.342-0.968v0.017l32.516,0.311l32.558,0.29l0.015,0.004c7.314,0.069,14.595,0.998,21.69,2.77v0.002
			l9.299,2.32l2.237,0.538l0.787,0.166v7.663l-17.335-2.982l0.005-0.026c-6.57-1.129-13.222-1.729-19.889-1.792l-0.019,0.016
			l-16.776-0.166l-45.17-0.414v-0.019c-3.625-0.033-7.247,0.25-10.823,0.849l-0.008,0.019l-32.019,5.364l-6.089,1.077l-47.117,8.864
			l-0.001-0.01c-2.27,0.426-4.558,0.725-6.861,0.896l-0.014,0.005l-12.385,0.925l-6.461,0.483l-29.348,2.175v-0.005
			c-2.925,0.216-5.857,0.295-8.79,0.235l-0.012-0.002l-39.371-0.787l-3.77-0.042l-3.749,0.042l-3.77,0.124l-3.749,0.186l-3.749,0.29
			l-3.728,0.352l-3.749,0.456l-3.728,0.518l-3.708,0.601l-3.687,0.663l-3.687,0.766l-3.666,0.828l-3.645,0.911l-3.625,0.974
			l-3.624,1.056l-3.583,1.139l-3.542,1.222l-27.318,9.631L1081.866,152.927z"/>
	</g>
	<g id="Layer_2">
		<path fill="#0000FF" d="M654.436,83.764l0.007-0.016c4.624,2.007,9.572,3.151,14.606,3.376l-0.001,0.019l18.122,2.361
			l26.179,3.293l21.705,3.065l0.021-0.014c3.597,1.365,7.649,0.697,10.618-1.75l0.005,0.005c1.985-1.023,4.229-1.441,6.448-1.198
			l-2.216,16.124c-2.111-0.078-4.092-1.041-5.457-2.653l0.005-0.007c-1.577-1.446-3.559-2.38-5.68-2.679l-0.016,0.021l-26.034-3.624
			l-21.312-2.713l-18.495-2.402l-16.71-2.34l0.002-0.007c-0.616-0.582-1.481-0.82-2.308-0.637c-0.829,0.183-1.51,0.765-1.824,1.552
			l-0.016,0.004l-1.16-0.414l-0.004-0.009c0.147-0.685,0.047-1.4-0.279-2.019l-0.007-0.002l-2.258-0.973l-0.891-0.476l-1.346-0.766
			l-1.719-1.015l-0.932-0.58l-0.932-0.642l-0.932-0.642l-0.891-0.663l-0.808-0.683l-0.725-0.663l-5.074-5.053l-1.18-1.222
			l-1.119-1.201l-1.098-1.243l-1.056-1.263l-1.015-1.326l-0.974-1.367l-0.953-1.47l-0.911-1.553l-0.87-1.657l-0.642-1.45
			l-0.539-1.615l-0.476-1.719l-0.373-1.781l-0.331-1.802l-0.249-1.76l-0.207-1.678l-0.145-1.553l-0.104-1.367l-0.125-2.05
			l-0.021-0.746l-0.145-20.09l-0.125-4.059h7.208l0.249,25.619l0.249,3.666h0.027c0.678,10.031,6.298,19.066,14.991,24.102
			l-0.003,0.005l5.696,3.293l0.012-0.014c0.176,0.297,0.499,0.475,0.844,0.469c0.338-0.007,0.646-0.188,0.816-0.48l0.005,0.003
			l1.367,0.186l0.024,0.014c-0.152,0.255-0.19,0.563-0.102,0.846c0.09,0.285,0.295,0.518,0.566,0.642l-0.005,0.014L654.436,83.764z"
			/>
		<path fill="#0000FF" d="M821.618,166.338l-0.014,0.004l-7.601-24.812l0.029-0.021c-0.752-2.09-1.574-4.154-2.465-6.189
			c-0.887-2.033-1.841-4.035-2.863-6.006c-1.508-2.91-3.157-5.744-4.943-8.493c-1.783-2.746-3.7-5.404-5.744-7.963l-0.014,0.004
			c-5.25-4.922-12.05-7.856-19.228-8.302c-1.567,2.735-4.551,4.513-7.888,4.408l1.914-17.382c3.248,0.618,5.758,2.963,6.712,5.934
			c8.228,1.902,15.923,5.625,22.52,10.897l-0.002,0.012c1.685,1.65,3.286,3.381,4.8,5.19c1.514,1.807,2.938,3.688,4.267,5.637
			c2.389,3.504,4.463,7.211,6.198,11.08c1.733,3.868,3.12,7.88,4.146,11.993l-0.003,0.009l8.968,31.046l1.843,18.764l0.249,21.622
			l-1.595,14.001l-0.684,19.116l3.417,18.474l1.823,5.758l5.24,16.652h-7.063l-5.654-19.054l-3.749-18.267l-0.394-17.521
			l1.885-20.255l0.456-3.542l-0.808-17.273l0.029-0.003c-0.456-2.698-2.211-4.996-4.693-6.146c-2.483-1.149-5.373-1.001-7.723,0.397
			l-0.018,0.007l-2.763-6.042l0.173-0.079l5.53-2.382l-0.003-0.01C820.212,175.646,822.583,170.966,821.618,166.338z"/>
		<path opacity="0.4" fill="#FF0000" enable-background="new    " d="M628.91,47.465L628.91,47.465
			c0.165,18.802,14.297,34.537,32.971,36.714v0.003l33.841,3.935l0.399,0.045l55.814,6.489l-1.217,8.612l-55.719-6.477
			l-34.111-3.964l-0.022-0.003c-23.025-2.687-40.452-22.093-40.654-45.277h-0.001l-0.207-22.572h8.698L628.91,47.465z"/>
		<path opacity="0.4" fill="#FF0000" enable-background="new    " d="M834.609,260.452l8.098,27.318h-9.071l-7.225-24.399
			l-0.003,0.002l-0.135-0.45l0.007-0.002c-4.27-14.439-4.979-29.696-2.067-44.468v-0.002l0.538-2.775l0.014-0.007
			c0.162-0.828,0.242-1.671,0.234-2.515h-0.021l-0.145-17.195v-0.974l0.019-0.01c-0.014-1.626-0.102-3.25-0.261-4.869l-0.027,0.004
			h-0.002l-0.205-2.125h0.017c-0.159-1.628-1.108-3.074-2.539-3.868c-1.429-0.794-3.158-0.835-4.625-0.11l0.001,0.022l-4.246,2.092
			l-2.775-6.047l6.317-2.589l0.003-0.002c3.49-1.296,5.54-4.917,4.858-8.576l-0.016,0.003l-7.891-27.318l0.026-0.005
			c-0.616-2.135-1.364-4.23-2.233-6.274l-0.009,0.003l-0.537-1.203l-0.001,0.002l-0.767-1.698l0.002-0.012
			c-1-2.2-2.146-4.33-3.428-6.379l-0.014,0.009l-3.271-5.216l0.021-0.014c-4.46-7.114-11.71-12.019-19.972-13.51h-0.014
			l-11.928-2.152l0.786-7.428l12.468,2.249l0.016-0.005c10.328,1.866,19.391,7.998,24.963,16.891l-0.022,0.014l3.272,5.219
			l0.016-0.012c1.457,2.327,2.758,4.748,3.896,7.247l-0.018,0.014l0.787,1.698l0.002-0.002l0.537,1.203l0.005-0.002
			c0.872,2.026,1.635,4.097,2.285,6.205l0.019-0.005c0.399,1.284,0.761,2.58,1.087,3.885l0.003,0.016l7.391,25.566l0.024-0.003
			c1.055,3.65,1.771,7.39,2.144,11.172l-0.035,0.016l1.013,10.302l0.036-0.003c0.18,1.838,0.278,3.685,0.295,5.531l-0.019,0.014
			l0.145,16.341l0.007,0.003c0.05,1.664-0.033,3.329-0.25,4.979l-0.026-0.002l-0.703,10.186h-0.003
			c-0.207,2.52-0.304,5.047-0.287,7.575l0.014,0.002c-0.26,8.887,0.884,17.756,3.388,26.284c0.016,0.052,0.029,0.105,0.045,0.157
			L834.609,260.452z"/>
	</g>
	<g id="Layer_1_1_">
		<path fill="#0000FF" d="M373.688,205.47h-0.019l-0.725-14.27l-0.621-6.772l-0.725-6.752l-0.787-6.752l-0.891-6.731l-0.973-6.731
			l-1.077-6.71l-1.16-6.69l-3.956-18.536l-3.5-17.521l-4.908-19.385l-0.003-0.01c-4.719-10.752-15.028-17.987-26.747-18.768
			l-0.009-0.007l-4.515-0.166l-57.866-0.104L228.61,69.69l-20.877,0.145l-13.213,0.083l-5.903-0.041l-23.238,0.29l-27.173-0.021
			l-26.22-0.642l-5.074,0.352l-2.485,3.562l-1.201,3.542l0.145,1.988l-7.099,0.573L95.79,77.54l-3.894-6.275l-0.124-0.186
			l-0.269-0.373l-0.166-0.186l-0.186-0.186l-0.104-0.062l-0.829-0.456l-0.393-0.186l-0.414-0.166l-0.414-0.145l-0.704-0.186
			l-0.911-0.186l-0.435-0.041l-0.414-0.021h-0.435l-0.476,0.062l-0.228,0.041l-0.249,0.062l-0.518,0.207l-0.518,0.249l-0.497,0.269
			l-0.766,0.497l-5.861,4.474l-5.323,4.246l-5.509,5.033l-3.775,4.159l0.005,0.003l-4.308,6.317l-6.292-7.515l0.162-0.128
			l3.107-2.465l1.885-1.553l1.844-1.533l1.823-1.574l3.935-3.417l0.145-0.124l0.249-0.269l0.849-1.139l0.249-0.29l1.636-1.512
			l1.16-1.077l2.941-2.63l0.435-0.683l0.932-0.974l0.973-0.559l2.755-2.713l1.325-1.346l1.325-1.408l1.181-1.305l0.497-0.58
			l0.911-1.139l0.849-1.098l0.808-1.098l2.506-3.479l4.225-5.965l4.308-6.172l6.935-13.174l0.009-0.016l7.33,3.674l-6.921,13.554
			l-3.107,6.462l-0.187,0.621l-0.352,1.45l-0.186,0.828l-0.145,0.808l-0.042,0.373l-0.062,0.828v0.394l0.021,0.394l0.083,0.373
			l0.145,0.373l0.104,0.186l0.311,0.518l0.331,0.456l0.352,0.414l0.393,0.352l0.435,0.331l0.497,0.311l0.269,0.145l0.435,0.186
			l0.456,0.186l0.497,0.166l1.036,0.311l0.994,0.228l1.657,0.311l7.29,0.311l20.297,0.456l18.35,0.083l39.848-0.104l36.492-0.104
			l36.762-0.104l58.135,0.021l9.486,0.642l6.814,1.698l5.269,3.265l0.007-0.01c10.202,5.609,17.23,15.633,19.025,27.142
			l-0.007,0.007l4.122,19.344l5.551,25.267l1.222,6.048l0.911,4.763l0.973,5.323l0.476,2.734l0.435,2.672l0.373,2.568l0.331,2.402
			l0.311,2.693l0.29,2.589l0.249,2.485l0.228,2.444l0.187,2.382l0.352,4.701l0.29,4.764l0.601,10.252l0.166,2.879l0.311,6.379
			l0.29,6.607l0.414,11.474l0.166,4.95l0.331,34.38l0.249,3.666l0.145,1.553l0.042,0.249h-7.083l-0.145-1.222l-0.145-1.553
			l-0.124-1.388l-0.104-2.03l-0.021-0.766l-0.166-20.069l-0.476-17.273v-0.021l-0.642-10.956l-0.021-0.145l0.01-0.009
			c-0.102-0.844-0.858-1.455-1.705-1.372l-0.003-0.007l-0.663-6.772l1.015-0.228l0.017-0.007
			C373.26,206.716,373.716,206.131,373.688,205.47z"/>
		<path opacity="0.4" fill="#FF0000" enable-background="new    " d="M321.519,60.908v-0.021
			c21.52-0.007,39.998,15.309,43.983,36.458l-0.012,0.014l1.491,7.932l9.96,52.744l0.009-0.002
			c1.989,10.551,3.193,21.234,3.604,31.964l-0.007,0.022l1.574,41.063h0.014c0.014,0.366,0.022,0.734,0.026,1.101l-0.019,0.003
			l0.249,29.886l0.062,1.74l0.145,1.74l0.207,1.719l0.311,1.719l0.373,1.678h-8.906l-0.145-0.725l-0.311-1.947l-0.228-1.926
			l-0.145-1.968l-0.062-1.947l-0.249-29.886l0.019-0.01c-0.001-0.283-0.009-0.564-0.019-0.844h-0.021l-1.574-41.065l0.012-0.022
			c-0.394-10.299-1.55-20.556-3.459-30.685l-0.014,0.003l-9.939-52.74l-1.512-7.953l0.017-0.004
			c-3.212-17.031-18.091-29.365-35.423-29.365l-0.01,0.021l-39.372,0.104v0.828l-6.068,0.104V69.73l-81.477,0.249v1.284l-6.11,0.083
			V70l-58.053,0.166l-0.021,0.394l-18.495,0.104l-0.041-1.263l-0.002-0.017c-3.852,0.45-7.025,3.241-7.963,7.004
			c-0.209,0.84-0.302,1.703-0.273,2.568l-0.005,0.014l0.021,0.311l-7.394,0.249l-0.021-1.243l-0.104-4.037h0.021
			c-0.035-1.47-1.091-2.717-2.535-2.991l-0.009,0.016c-4.465-0.847-9.082-0.274-13.203,1.641l-0.007-0.012
			c-2.076,0.963-3.987,2.249-5.661,3.809l-0.019,0.019L62.383,88.188l-4.308,6.317l-6.296-7.518l16.838-14.684l2.382-2.133
			l2.34-2.216l2.299-2.257l2.216-2.32l2.154-2.382l2.092-2.444l2.05-2.485l1.968-2.547l1.906-2.589l1.823-2.651l1.781-2.672
			l1.678-2.734l1.636-2.775l1.553-2.817l1.47-2.858l3.521-6.979l7.766,3.894l-8.16,16.258l-0.002-0.002
			c-1.49,2.988-1.327,6.534,0.43,9.373c1.76,2.843,4.865,4.57,8.208,4.567c0.005,0,0.012,0,0.019,0L321.519,60.908z"/>
	</g>
</g>
</svg>
